<?xml version="1.0" encoding="utf-8"?>
<!-- Generator: Adobe Illustrator 28.0.0, SVG Export Plug-In . SVG Version: 6.00 Build 0)  -->
<svg version="1.1" id="Слой_1" xmlns="http://www.w3.org/2000/svg" xmlns:xlink="http://www.w3.org/1999/xlink" x="0px" y="0px"
	 viewBox="0 0 1000 678.432312" enable-background="new 0 0 1000 678.432312" xml:space="preserve">
<g>
	<path fill="#F2940A" d="M428.1369934,360.7492065c-0.8683167,0.4429932-1.7607422,0.8960266-2.6603699,1.3494568
		c-9.236969,6.4589233-11.4860229,14.908905-10.6619873,15.6062927l17.4163818-9.9062805
		c24.5849304-10.3420715,60.1340942-22.5381165,71.9310608-24.2247314
		C503.73349,343.5739441,456.3484802,346.1601868,428.1369934,360.7492065 M580.9464111,356.6832886
		c-15.4660034-3.120636-36.2415161-5.6647644-62.3342285-2.9658813
		c-48.3439941,5.0058594-71.5762329,12.0693359-83.2537231,16.7185974l-25.8483582,9.1984863l-6.1638489,6.5413513
		l18.9676514-1.6481323l20.3822632-7.8911438c7.4517517-2.5369263,15.9258423-5.0090942,25.9519958-7.3743896
		C516.0802612,357.9308777,591.0916748,359.492981,580.9464111,356.6832886 M736.7677612,453.7760925
		c-2.5866089-23.4431152-4.0482788-28.4630127-9.2178955-47.1971436l-3.1029663-8.7904053
		c-7.569458-19.9147949-15.869751-32.6923523-23.87854-45.1042786
		c-12.5350342-16.5955505-26.0714722-35.0518799-80.7167969-51.0518494
		c51.9813232,12.6210022,55.8961182,19.1116028,62.6681519,23.6237488l-8.0228271-7.6237793
		c-39.5377808-29.3363647-101.6542969-43.1398315-163.1482544-31.6451721
		c38.3534546-12.4223633,101.3620605-10.9009094,140.7205811,13.5364685
		c-41.5442505-26.0520325-71.9522095-29.4396362-101.5095825-31.881958
		c-4.5405884-0.1882019-9.7976074-0.4181213-15.7470093-0.4181213c-53.0162964,0-117.1040649,26.5353088-150.1109009,56.6763
		c-2.9640808,2.5513306-5.4873657,4.9810486-7.6097412,7.1933899c-10.1805115,11.9761658-3.3753967,20.1695557,1.5146179,22.9191895
		c1.6304626,0.9172363-0.3987427,18.4178162,1.1982727,19.493042c5.2538147,3.5545959,23.9980164-18.4034119,32.5059509-22.191925
		c30.5818176-13.6595154,98.4789429-36.6578674,183.0821228-20.2588196
		c67.3947754,18.9604797,96.2597656,50.7125244,98.1082764,53.1497803
		c1.8449707,2.4210815,13.0305176,13.7966614,12.7354736,18.4631653c-0.5343628,0.3235168-1.5707397,0.8312683-2.473999,0.2267151
		c-1.8837891-1.1911011-3.7039185-3.6301575-5.3800659-5.0814209c-0.0176392,0.0719604-0.4815063-0.2810669-0.9349365-0.6326294
		c-0.4321289-0.3461609-0.8643188-0.6905518-0.8643188-0.6448364c-3.7636719-4.0659485-22.6982422-18.0540161-37.2185669-24.2722168
		c-20.522583-8.736084-44.2643433-11.1010132-64.5411377-16.6815491
		c23.1937256,9.1912537,47.6519775,12.083374,69.3977051,24.4550171
		c25.9800415,14.5818176,44.5875244,40.6885376,44.8196411,40.9328918
		c21.4959717,29.0391235,25.0559692,58.0099182,22.8983154,80.39505c-0.0597534,0.6783447,0.2108154,1.398407,0.1334839,2.059082
		c-0.0108032,0.1338501,0.0561523,0.3270874,0.0421143,0.4638367v0.1371155
		c-0.7521362,6.5611267-1.7183228,12.500061-2.9169922,17.5322266c-0.7376709,3.2681274-1.9327393,6.9367676-3.1029663,11.1258545
		l0.2249146-0.1652222c4.8813477-14.9985352,5.4506226-17.5354614,8.9296875-36.2202759
		C737.5443115,476.920166,737.4212646,472.9352112,736.7677612,453.7760925 M632.6748047,351.9145508
		c0.3303223,0.0388489,2.0345459,0.1230774,2.3264771,0.1230774c0.8222046-1.5811768-10.8167725-5.9882812-15.1813965-7.0386658
		c-3.4718018-0.9683533-14.0496216-4.1681519-17.9431763-4.4491882c0.0773315,0.0262756-2.0662842,0.7643127,10.6691895,4.9302979
		C615.7399292,346.5308533,613.522522,349.7342224,632.6748047,351.9145508"/>
	<path fill="#232E66" d="M692.5808105,450.8487244c-0.5977783-0.2670288-1.2232056-0.5027161-1.8345947-0.7449036
		c0,0.0032349-0.0140381,0.010437-0.0140381,0.0172729c0.6254272,0.2497559,1.2299805,0.509552,1.8414307,0.7661438
		C692.5736084,450.8663635,692.5808105,450.8591614,692.5808105,450.8487244"/>
	<path fill="#FAD50A" d="M731.9393311,501.3647461c2.1608887-22.3851318-1.4023438-51.3559265-22.8983154-80.3968506
		c-0.2321167-0.2425537-18.8395996-26.3492737-44.8196411-40.9292908
		c-21.7457275-12.3716431-46.2039795-15.265564-69.3977051-24.4550171
		c20.2767944,5.5769348,44.0185547,7.9400635,64.5411377,16.6815186
		c14.5203247,6.2149658,33.454895,20.203064,37.2185669,24.2722473c0-0.0507812,0.4321899,0.2986755,0.8643188,0.639801
		c0.4534302,0.3565674,0.9172974,0.7096252,0.9349365,0.6376648c1.6725464,1.4494629,3.4962769,3.8903198,5.3800659,5.0814209
		c0.9032593,0.6009521,1.9396362,0.0968018,2.473999-0.2267151c0.2950439-4.6719055-10.8905029-16.0420837-12.7354736-18.4685364
		c-1.8485107-2.4318848-26.7321167-40.3934937-94.1229248-59.3525391
		c-84.5999756-16.3986816-156.4838562,12.8056335-187.0674744,26.4669495
		c-8.5147705,4.4225464-12.8581543,20.6827087-10.4579468,22.6489258
		c2.0255737,1.6938171,10.637146-2.7816162,23.6201477-11.8724976c0.8927917-0.4498291,1.7992554-0.9032288,2.6639709-1.3426208
		c28.2114868-14.5872192,75.5964966-17.1788635,76.0250854-17.1788635
		c-11.795166,1.6920166-47.3461304,13.886261-71.9310608,24.2247314l-10.3492737,4.3048706l-5.7932129,5.6788025
		l19.2663269-7.3409424c11.6810913-4.6492615,34.9133301-11.7181396,83.2591553-16.7185974
		c26.0908813-2.7024841,46.866394-0.1547546,62.3323975,2.9604797c10.1452637,2.815094-64.8661499,1.2529907-112.2982483,12.584259
		c-10.0261536,2.3617249-18.5002441,4.8356934-25.9519958,7.3726196l-29.8635559,8.7134094
		c3.1662903,3.0662842,19.3314819,23.6802673,23.9472656,29.4644775l8.0966187,4.6265869
		c0.7923889,1.0119019,7.6431885,3.5261841,8.3988647,4.5207825l9.3704834-4.5207825
		c1.5901794,2.0414429-8.5780945,6.910553-7.196991,8.5690918c2.0155334,2.4671326,8.1038208-8.5690918,18.4966431-15.1072083
		c60.4418335-30.8455811,107.8620605-31.7275696,130.2471924-31.2637329
		c0.5339966-0.0827637,10.2823486,1.1051025,11.6983643,1.8748169c3.3278809,1.8309326-24.6726685,3.0256348-17.8762817,5.0814514
		c6.0336304,1.8096619,21.5910034-2.3318176,23.2495728-2.5301208c0.7380371,0.0173035,1.2579956-0.1583557,1.7607422-0.3375244
		c0.5584717-0.1914673,1.0928345-0.3969116,1.8938599-0.3249512c0.6643066,0.0262756,15.1600952,0.0262756,17.8309326,0.867981
		c16.0596924,3.9111633,0.9978638,5.9547729-4.6280518,4.6316223c-1.1068726-0.2565918-7.0915527-0.1299133-8.289856,0.1687622
		c-2.031311,0.5253906-6.2167358,1.020874-8.2020264,1.4829407c-2.9694824,0.6797485-8.7573242,1.5181885-11.6951294,1.9888916
		c-1.6657715,0.2810059-20.5228882-0.223114-17.6552734,2.2141418c0.6325684,0.1140747,14.555542,0.8240662,16.7729492,1.9784241
		c3.6513672,0.446228,5.3239746,0.168457,6.8212891,0.168457c1.2368164,0,3.7107544-0.6009521,4.9194946-0.2512207
		c0.6290283,0.1792297,1.3919067-0.2705688,2.3721313-0.7272339c0.9733887-0.4429626,2.1544189-0.8855896,3.6582031-0.7257996
		c1.0367432,0.0932007,2.7129517,0.5570068,2.4038086,1.3159485c-3.050415,7.2268677-8.1879883,6.4747925-17.5145874,5.7262878
		c-4.4347534-0.3493958-9.8044434-0.7063599-16.3479614-0.2090454c-10.9008789,0.8240356-22.4833984,5.6895752-24.451416,3.9867249
		c-1.3213501-1.1155396,12.7282104-6.6064453,8.9048462-7.4060364
		c-6.4204712-0.9751892-55.9735107,16.6678772-58.5737915,23.4920654c0.1036377,0,0.2158813,0,0.298645-0.0611572
		c-0.4289551,1.0611877,0.1651611,1.3404236,1.0824585,1.6707764c2.5196533,0.5447998,13.0269165-3.2663574,15.5958862-3.3772278
		c3.0957642,0.1108704,4.0166016-1.475708,7.0598755-1.5318604c2.3228149,0.0561523,10.5352783-4.1029968,12.8477173-4.1029968
		c4.364624,0,6.0792847,2.1947021,10.4403076,1.2335815c3.5247192-0.8100281,7.9210205-0.3566284,11.3651123-1.5218506
		c3.3908691-1.0223083,6.7821045-2.3210144,10.2085571-3.2206421c0.7766113-0.2738342,1.602417-0.4498291,2.3894043-0.730835
		c0.3583984-0.0755615,3.0256958-0.6254272,3.4509888-0.6254272c0.8154297-0.0280457,6.5715332,2.4282837,6.2869263,3.0907288
		c7.6327515,4.5013733,9.8008423,8.0577698,16.3371582,8.4356079c0.4534302,0.0352478,0.8471069-0.0543213,1.3001709-0.0543213
		c0.4569702,0,0.8891602,0,1.293335-0.0284424c1.5462036-0.2598267,3.1137085-0.5005493,4.5614014-0.7747498
		c1.9924927-0.4919128,3.9569092-0.730835,5.9389648-1.0367126c2.7409668-0.5163879,5.7841797-0.1104736,8.567627-0.0317078
		c2.5650024,0.0583191,5.095459,0.9471436,7.6011353,1.2091064c3.0324097,0.4077454-0.5448608,2.3825989-1.5991821,2.9939575
		c-3.513916,2.178894-7.4499512,4.1325378-11.3118896,5.5982056c-2.611084,1.1068726-4.7370605,1.8517761-7.6046753,1.7286987
		c-1.5603027-0.0456848-2.7164917,0.1022034-4.2275391,0.6221619c-0.9136353,0.3091431-1.7571411,0.6150208-2.7236938,0.7520752
		c-0.8255005,0.0245056-1.6726074-0.0913696-2.5509644-0.0913696c-1.1633911,0-2.5128174-0.2145081-3.7215576-0.0633545
		c-0.562439,0.1547241-0.8575439,0.3407898-1.5042114,0.4710693c-0.4144897-0.0248718-0.8643188-0.0248718-1.1878662-0.0705261
		c-0.8995972-0.0597534-1.75354-0.0597534-2.5722046,0.2705994c-0.9067993,0.3656006-0.9240723,0.6362-1.9503784,0.7204285
		h-1.1140747c-0.8855591-0.0842285-1.7992554-0.0842285-2.6707764,0.2601318
		c-2.1436768,0.9629822-4.3786621,0.9770203-6.6558228,1.0331726c-0.3022461-0.0140381-0.4987183-0.0561523-0.7941895-0.0140381
		c-0.147522,0.1266479-17.5635376,1.2054749-17.7463379,1.3846741c-1.3987427,0.5973511-2.8640137,1.0820923-4.3225098,1.5250549
		c-3.1206055,1.2227783-6.0126953,2.9799194-9.3650513,3.928833c-0.7801514,0.2285156-1.2195435,0.1403503-1.9223633,0.3055115
		c-1.9820557,0.4746399-4.1433105,1.1842651-6.1005249,1.6765442l-2.6463013,2.0943298
		c-1.2087402,0.6077881-2.611084,1.581543-3.9709473,1.7639771c-1.1281128,0.1371155-2.1400146,0.5027161-3.2505493,0.6747131
		c-1.145752,0.1759644-1.4969482,0.9665527-2.3051758,1.5113831c-0.7452393,0.4919128-1.7362671,0.3159485-2.4707031,0.741272
		c-1.5495605,0.8258667-23.0282593,8.0052185-24.5935669,8.8555298c-0.7520752,0.3479919-1.4074097,0.6081543-2.0698853,0.924469
		c-0.9276733,0.5412292-2.1612549,1.0716248-2.9360046,1.8449707c-0.6325989,0.7236328-0.6325989,2.3893738-0.4289246,3.4333191
		c-0.0633545,0-0.1072388,0.0561218-0.1860657,0.063324c0.0788269-0.0072021,0.1227112-0.0456848,0.1860657-0.0456848
		c0.0474854,0.168396,0.0615234,0.2914734,0.0615234,0.4321594c1.9151001,0.5444336,3.642395,0.4778748,5.671936,0.1335144
		c0.6941528-0.0421143,1.4793701-0.1723633,2.1699219-0.3972778c1.0435181-0.2421875,1.878418-0.2598267,2.8852539-0.4041138
		c1.8834839-0.168396,3.5913086-1.1806946,5.3552856-1.9327698c0.265564-0.084198,0.5185547-0.2950745,0.7452393-0.4285583
		c23.0386963-5.1519775,61.4975586-21.1307373,99.7211914-23.699707c0.4113159,0,40.15271-1.7816162,66.8920288,10.6691895
		c7.9346924,3.6301575,45.0092773,24.374054,30.1234131,83.4962769c-0.0388794,0.1547241-0.0740967,0.3234863-0.1054688,0.4710083
		l-0.0352173,0.1122437l1.1525879-3.078125c0.0352173-0.1194458,0.0737305-0.2601318,0.1054077-0.3868408l-0.2004395,0.1547852
		c1.1702271-4.1890869,2.3652954-7.8613281,3.1029663-11.1258545c0.3552246-1.5671387,0.6715088-3.0537109,0.9561768-4.4876709
		c0.7661133-3.9637451,1.4195557-8.3355713,1.9608154-13.0445557v-0.1371155
		c0.0140381-0.1367493-0.0529175-0.3299866-0.0421143-0.4602356
		C732.1465454,502.7631531,731.8795776,502.0430908,731.9393311,501.3647461 M601.876709,340.5479431
		c3.8935547,0.284668,14.4713745,3.482666,17.9431763,4.4474182c4.364624,1.0507507,16.0036011,5.4625244,15.1813965,7.0386658
		c-0.295105,0-1.9961548-0.0788574-2.3264771-0.1176758c-19.1522827-2.1803284-16.9348755-5.3836975-20.1289062-6.4344788
		C599.8104248,341.3105164,601.9540405,340.5760498,601.876709,340.5479431 M588.7303467,423.5332642
		c0.4882812-0.2814026,1.2122803-0.5325928,1.7463379-0.9313049c-10.190979,0.8485413-15.3181152,1.665741-21.5769653,3.9885864
		c-4.0623169,1.9536133-7.3549805,2.8885193-10.7285767,5.5805359c-0.9136353,1.5743103,1.1173706,2.5020447,1.4408569,2.6283569
		C565.3260498,435.9275513,565.7053223,434.005249,588.7303467,423.5332642"/>
</g>
<g>
	<path fill="none" d="M630.5804443,528.8630371c2.7971191-1.5217896,5.7489624-0.6009521,7.4251709,0.3407593
		c7.0318604-8.9505615,14.387146-12.3240967,20.7827148-21.9986877c1.3322144-2.0730896,4.7546997-7.442749,6.0163574-9.3931274
		c5.3592529-9.7098389,5.8547363-18.9694824,7.8155518-26.1981506c-0.3796387,0.6534729-0.8330078,1.4689026-1.2828369,2.0662537
		c-0.3828735,0.488678-2.9061279,11.4633789-8.6975708,11.4633789c-1.8622437,0-6.5431519-0.9104309-5.9105225-3.0997314
		c-4.3153076,14.8790588-17.4304199,21.4963379-23.0846558,33.7992249
		C639.2639771,518.5032959,629.8776855,524.5405273,630.5804443,528.8630371z"/>
	
		<linearGradient id="SVGID_1_" gradientUnits="userSpaceOnUse" x1="77.9594116" y1="634.3237305" x2="81.0079498" y2="634.3237305" gradientTransform="matrix(62.7503014 -44.5003014 -44.5003014 -62.7503014 23790.6796875 43832.8554688)">
		<stop  offset="0" style="stop-color:#52BCE8"/>
		<stop  offset="0.1374519" style="stop-color:#4FB6E2"/>
		<stop  offset="0.3242389" style="stop-color:#49A4D3"/>
		<stop  offset="0.5393718" style="stop-color:#3F88B9"/>
		<stop  offset="0.7737971" style="stop-color:#316096"/>
		<stop  offset="1" style="stop-color:#21336E"/>
	</linearGradient>
	<path fill="url(#SVGID_1_)" d="M435.7888489,573.2396851c0.0388489,0.0072021,0.0791626,0.0140381,0.1176758,0.0280762
		c0.1021729-0.0597534,0.1442871-0.0878296,0.1126099-0.0878296
		C435.9946899,573.1799316,435.9172974,573.1975708,435.7888489,573.2396851z"/>
	
		<linearGradient id="SVGID_00000056408127848759397550000014285935754485724808_" gradientUnits="userSpaceOnUse" x1="78.0143051" y1="632.4165649" x2="81.6146469" y2="632.4165649" gradientTransform="matrix(62.7503014 -44.5003014 -44.5003014 -62.7503014 23790.6796875 43832.8554688)">
		<stop  offset="0" style="stop-color:#52BCE8"/>
		<stop  offset="0.1374519" style="stop-color:#4FB6E2"/>
		<stop  offset="0.3242389" style="stop-color:#49A4D3"/>
		<stop  offset="0.5393718" style="stop-color:#3F88B9"/>
		<stop  offset="0.7737971" style="stop-color:#316096"/>
		<stop  offset="1" style="stop-color:#21336E"/>
	</linearGradient>
	<path fill="url(#SVGID_00000056408127848759397550000014285935754485724808_)" d="M670.8703003,604.1644287
		c-0.0845337,0.0489502-0.1827393,0.1087036-0.2706299,0.1651611c-9.8433228,6.6241455-19.7427368,13.2518311-29.8386841,19.6265869
		c-32.010437,20.234314-65.890625,37.8824463-105.2175293,44.6436768
		c-3.4368896,0.5904541-6.9349976,1.0751953-10.4579468,1.4901123c-0.0212402,0.0068359-0.0755615,0.0385132-0.0863647,0.0385132
		c30.3572998-2.4210815,47.7769165-4.6737671,76.6314087-18.5373535
		C627.1331177,639.3339844,657.1791382,615.7609253,670.8703003,604.1644287z"/>
	
		<linearGradient id="SVGID_00000070822176482503055910000005573944689529662085_" gradientUnits="userSpaceOnUse" x1="78.0143967" y1="633.6658936" x2="81.6140594" y2="633.6658936" gradientTransform="matrix(62.7503014 -44.5003014 -44.5003014 -62.7503014 23790.6796875 43832.8554688)">
		<stop  offset="0" style="stop-color:#52BCE8"/>
		<stop  offset="0.1374519" style="stop-color:#4FB6E2"/>
		<stop  offset="0.3242389" style="stop-color:#49A4D3"/>
		<stop  offset="0.5393718" style="stop-color:#3F88B9"/>
		<stop  offset="0.7737971" style="stop-color:#316096"/>
		<stop  offset="1" style="stop-color:#21336E"/>
	</linearGradient>
	<path fill="url(#SVGID_00000070822176482503055910000005573944689529662085_)" d="M416.5786438,590.395874
		c2.1526184,1.4689331,4.6650696,3.0079956,7.6662292,4.6035767c21.9616089,11.6281738,53.8543701,17.8449097,38.3588867,10.6724243
		c-32.4425964-18.3016357-8.927887-6.1217651,19.5121155,0.5552368c26.4810181,6.2199707,44.9023743,6.5362549,63.7066956,5.5769043
		c0.1755981-0.0737305,0.2072754-0.0665283,0.2457886-0.0632935c33.8377075-13.0549927,62.5591431-31.7398071,78.6256714-49.6092529
		c-1.7286987,1.0227051-6.0616455,4.1080322-10.0012817,5.7140503c-0.4181519,0.1195068-32.7484741,9.3546753,9.4428101-20.9094238
		c31.9082031-22.9119873,54.56073-53.2778625,63.0859375-91.7684631c0.5411987-2.4422913,2.0662842-4.1609497,2.772644-5.3624878
		c0.6185913,0.2353516,2.7200928,1.0716553,3.331543,1.328186c-2.6251221,12.2784424-5.3625488,22.5431519-8.8768311,34.5653687
		c3.1134644-3.9360352,4.9832764-5.1307373,8.0685425-9.0102539c-7.3340454,28.2467346-24.6622925,47.1000061-43.5968628,68.033905
		c-5.0601807,5.5981445,7.3377075-0.3829346-3.513916,11.2805176c2.6287231-2.8218994,2.0450439-1.296875,4.0728149-0.1932373
		c8.6062012-10.897644,22.5222168-11.4244995,30.3518677-23.3131714
		c20.3786011-31.0683594,27.4805908-48.2983093,32.4076538-67.8475037c0.1544189,0.1647949,0.3091431,0.3583984,0.4602661,0.526825
		c0.020874-0.0842285,0.0493164-0.1615906,0.0665894-0.2494202c0.0809326-0.3267212-2.1155396-2.1997375-2.4106445-2.4879761
		c-0.8467407-0.8362732-1.7182617-1.6517029-2.611084-2.4386902c-3.5913086-3.1699524-7.5834351-5.8511658-11.8354492-8.0509033
		c-0.6746826-0.3479919-1.3634644-0.6819153-2.0593872-1.008667c-6.7367554-3.1699219-13.961853-5.2221375-21.2711182-6.5715637
		c-1.6340332-0.3022766-3.2789307-0.5761719-4.9234619-0.8399048c-1.890625-0.2986755-3.7776489-0.5656738-5.6751709-0.8294373
		c-13.673584,32.4112854-15.6030884,54.8878479-45.7440796,72.7640991
		c-33.5109863,21.8230591-12.5418091,16.2180786-12.1938477,16.0632935
		c3.1695557-1.2122803,6.0267334-3.0817261,7.3481445-3.9780884c-12.9251099,20.810791-35.6618652,34.0698242-62.6541748,40.0332642
		c-0.6498413,1.9187012-9.9976196,1.6199951-11.6245728,3.0925293c-2.4354248,2.1295776-1.7783813,2.2947388-5.6212158,2.9975586
		c0.9719849,2.8499756-5.5697021,3.8233643-7.5236816,6.3887329c-2.5618286,3.50354,2.2562866,4.9551392-3.5193481,5.1552124
		l-4.6456299-2.3966064c-20.7950439,0-29.3274231-6.272522-35.9885559-12.1484985l-13.9405823,0.2987061
		c-2.2314758,1.6235962-9.3266296,1.585083-14.2428589,3.6020508c-0.6081238,0.2529907-1.8381348-0.4285889-3.2033997-1.1032715
		c-2.0328064-1.0122681-4.3610229-2.0241699-5.3466187,0.0525513c-1.1051331,2.326416-5.4118042,0.1442871-7.1725464-0.2529907
		c-1.0032349,0.5516357-7.7713318,3.5740356-6.1742859,3.8514404c-7.7767334-1.3317871-5.095459,1.0788574-12.4400024,3.5952759
		l-6.9810791,0.2353516C408.6263123,581.4978638,409.4907227,585.9642944,416.5786438,590.395874z M633.6446533,515.8429565
		c5.6542358-12.302887,18.7693481-18.920166,23.0846558-33.7992249c-0.6326294,2.1893005,4.0482788,3.0997314,5.9105225,3.0997314
		c5.7914429,0,8.3146973-10.9747009,8.6975708-11.4633789c0.4498291-0.5973511,0.9031982-1.4127808,1.2828369-2.0662537
		c-1.9608154,7.2286682-2.4562988,16.4883118-7.8155518,26.1981506c-1.2616577,1.9503784-4.6841431,7.3200378-6.0163574,9.3931274
		c-6.3955688,9.6745911-13.7508545,13.0481262-20.7827148,21.9986877c-1.6762085-0.9417114-4.6280518-1.8625488-7.4251709-0.3407593
		C629.8776855,524.5405273,639.2639771,518.5032959,633.6446533,515.8429565z"/>
	
		<linearGradient id="SVGID_00000159465072367136452800000010423676933372891817_" gradientUnits="userSpaceOnUse" x1="78.014473" y1="633.1082764" x2="81.6128693" y2="633.1082764" gradientTransform="matrix(62.7503014 -44.5003014 -44.5003014 -62.7503014 23790.6796875 43832.8554688)">
		<stop  offset="0" style="stop-color:#52BCE8"/>
		<stop  offset="0.1374519" style="stop-color:#4FB6E2"/>
		<stop  offset="0.3242389" style="stop-color:#49A4D3"/>
		<stop  offset="0.5393718" style="stop-color:#3F88B9"/>
		<stop  offset="0.7737971" style="stop-color:#316096"/>
		<stop  offset="1" style="stop-color:#21336E"/>
	</linearGradient>
	<path fill="url(#SVGID_00000159465072367136452800000010423676933372891817_)" d="M585.2268677,631.27948
		c-0.0177002,0-5.1343994,1.3458252-12.1204834,3.187561c-9.7976685,2.5793457-23.28479,6.135376-31.5184937,8.3563843
		c-15.4307251,4.2275391-32.1281128,10.317627-79.1316833,5.9389648c-0.2547302-0.0244751-0.5235596-0.0525513-0.7801208-0.0737915
		c-3.6740417,0.6747437-11.9833679,1.2087402-20.5369873,0.6643066c-6.7223511-0.4321899-18.6546021-2.315979-18.4422913-2.2490845
		c0.2479248,0.0842285,2.5196533,0.9770508,4.4913025,1.7536011c-0.0860291-0.0421143-0.1335449-0.0705566-0.1335449-0.0705566
		s5.9598389-0.8363037,27.1502991,3.5178833c8.3161316,1.7114258,16.6150208,2.1504517,25.2088928,3.1767578
		c0.168457,0.0140381,0.3303833,0.0212402,0.5023499,0.0457153c6.1833191,0.7661133,12.5562439,0.9629517,18.974884,0.7203979
		c15.8081665-0.583313,31.862854-3.781311,45.7858276-7.7137451
		C569.430481,641.5301514,587.4301758,632.2352295,585.2268677,631.27948z"/>
</g>
<linearGradient id="SVGID_00000057870548758672464450000017060302576733223868_" gradientUnits="userSpaceOnUse" x1="408.6452637" y1="564.1187744" x2="741.8494263" y2="564.1187744">
	<stop  offset="0" style="stop-color:#1885C8"/>
	<stop  offset="0.1327748" style="stop-color:#1980C1"/>
	<stop  offset="0.3269305" style="stop-color:#1A70AD"/>
	<stop  offset="0.5588246" style="stop-color:#1C578D"/>
	<stop  offset="0.8175311" style="stop-color:#1F3461"/>
	<stop  offset="0.999243" style="stop-color:#22183D"/>
	<stop  offset="1" style="stop-color:#22183D"/>
</linearGradient>
<path fill="url(#SVGID_00000057870548758672464450000017060302576733223868_)" d="M728.5689697,505.2302551
	c-0.0140381-0.3339233-0.0316772-0.6642761-0.0597534-0.9945984c-0.0561523-1.0576172-0.147522-2.0943298-0.2529297-3.120636
	c-0.0317383-0.3195496-0.0597534-0.6430359-0.0878296-0.95578c-0.1263428-1.0683594-0.288269-2.0943298-0.4498291-3.1134033
	c-0.0316772-0.2461243-0.0596924-0.5026855-0.1018677-0.7416382c-0.2039795-1.1983032-0.43573-2.3649292-0.6887207-3.5106812
	c-0.1334839-0.5901794-0.288269-1.1630554-0.4393921-1.7323303c-0.137085-0.5235901-0.2601318-1.0611877-0.3936768-1.5779419
	c-0.2072754-0.6991882-0.4145508-1.3598633-0.6290283-2.0417786c-0.1054077-0.3548279-0.2177124-0.7236633-0.3335571-1.0856628
	c-0.2601929-0.7204285-0.5095215-1.434021-0.7696533-2.1227722c-0.1019287-0.2706299-0.1968994-0.5303955-0.2987061-0.7869873
	c-0.2950439-0.744873-0.5941162-1.4865417-0.9172974-2.2033386c-0.0701904-0.1615906-0.1334839-0.3235168-0.2004395-0.4746399
	c-0.3688354-0.8046265-0.734436-1.5847778-1.1245117-2.3685303c-2.7161255-5.4186401-6.2445068-10.1416626-9.5828247-13.7505798
	c-4.927063,19.5491943-12.0290527,36.7791443-32.4076538,67.8475037
	c-7.8296509,11.8886719-21.7456665,12.4155273-30.3518677,23.3131714c-2.027771-1.1036377-1.4440918-2.6286621-4.0728149,0.1932373
	c10.8516235-11.6634521-1.5462646-5.682373,3.513916-11.2805176c18.9345703-20.9338989,36.2628174-39.7871704,43.5968628-68.033905
	c-3.0852661,3.8795166-4.9550781,5.0742188-8.0685425,9.0102539c3.5142822-12.0222168,6.251709-22.2869263,8.8768311-34.5653687
	c-0.6114502-0.2565308-2.7129517-1.0928345-3.331543-1.328186c-0.7063599,1.2015381-2.2314453,2.9201965-2.772644,5.3624878
	c-8.5252075,38.4906006-31.1777344,68.8564758-63.0859375,91.7684631
	c-42.1912842,30.2640991-9.8609619,21.0289307-9.4428101,20.9094238c3.9396362-1.6060181,8.272583-4.6913452,10.0012817-5.7140503
	c-16.0665283,17.8694458-44.7879639,36.5542603-78.6256714,49.6092529
	c-57.036499,22.0090942-128.6321716,28.0045776-178.9107361-12.942749
	C377.8124084,609.1825562,390.9220886,620.81073,403.3548889,628.5c-7.5744629-1.293335-13.0006409-7.1725464-20.1080017-9.3971558
	c0.1197815,0.2321167,17.3670044,22.697876,68.9039917,28.5911255c3.5913086,0.4113159,7.0213623,0.7628784,10.3053284,1.0684204
	c47.0035706,4.3786621,63.7009583-1.7114258,79.1316833-5.9389648c8.2337036-2.2210083,21.7208252-5.7770386,31.5184937-8.3563843
	c6.986084-1.8417358,12.1027832-3.187561,12.1204834-3.187561c2.2033081,0.9557495-15.7963867,10.2506714-40.5500488,17.2543945
	c-13.9229736,3.9324341-29.9776611,7.1304321-45.7858276,7.7137451c-6.4186401,0.2425537-12.7915649,0.0457153-18.974884-0.7203979
	c-0.1719666-0.0244751-0.3338928-0.0316772-0.5023499-0.0457153c-8.5938721-1.0263062-16.8927612-1.465332-25.2088928-3.1767578
	c-21.1904602-4.354187-27.1502991-3.5178833-27.1502991-3.5178833s3.203064,1.8028564,32.3864746,12.2363281
	c-1.8100586,0.6783447-10.4565125,1.8765869-46.3921814-13.5504761
	c0.3145142,0.2320557,43.0606995,20.6175537,67.5052795,23.0422363c19.5826721,1.9187012,37.7982788,1.0298462,54.9893188-1.9151001
	c39.3269043-6.7612305,73.2070923-24.4093628,105.2175293-44.6436768
	c11.2485352-7.102356,22.272583-14.5134888,33.2263794-21.8968506c0,0.2565918-0.1090698,0.6290283-0.1195068,0.9417114
	c0.6851196,0.1126099,1.5567017,0.2180786,2.2734985,0.288269c-0.4393311,1.2367554-0.4393311,1.2367554-6.4661255,8.4337769
	c13.1395874-10.6126709,19.8795166-27.0693359,33.8064575-37.0810547c-0.1936035,0.9381104-1.5006104,3.5736694-3.9536743,7.3865967
	c-0.4285889,0.5905151-0.8467407,1.2299805-1.2789307,1.8096924c-5.225647,7.7802734-14.4608765,19.4405518-27.9624634,31.9787598
	c1.138916-0.892395,2.2915039-1.8729858,3.6478271-3.1591187c-0.3195801,0.3234863-0.59375,0.6113892-0.8748169,0.9032593
	c-0.9841919,0.8959961-1.9014282,1.6833496-2.7730103,2.3720703
	c-23.0911865,21.4362793-58.6860352,45.4238281-108.3518066,56.9501953
	c4.6914062-0.6394653,6.1322021-0.878418,11.2416992-2.2138062c-6.6521606,1.8942261-6.8313599,2.0698242-9.6601562,2.9939575
	c1.75354-0.2281494,1.75354-0.2281494,10.8128052-2.0662842c-5.2783203,2.6074829-11.3648071,3.8374634-26.1099854,6.8349609
	c52.9615479-9.171814,96.9942017-31.578186,129.2471924-65.039917c1.4160156-1.465271,10.0855103-10.8588257,13.0021362-14.2640381
	c11.6669922-13.5997925,23.1583862-30.6013184,31.1776733-51.9320679c1.5250244-4.0518799,2.6743774-8.2265015,3.6970825-12.4367676
	c0.2879028-1.2015381,0.6322632-2.4210815,0.8467407-3.6334229c1.4023438-7.9349976,1.4933472-7.8997803,2.0241089-12.6051636
	c0.0072021-0.0913696,0.010437-0.1619263,0.0212402-0.2460938c0.1403809-1.4725342,0.2493896-2.9202271,0.3195801-4.3433838
	c0.0140381-0.2461548,0.0212402-0.4815063,0.0248413-0.7312622c0.0524902-1.2684326,0.0913696-2.5056152,0.0913696-3.7071533
	v-0.9244385C728.6535034,507.4336243,728.6254272,506.3267212,728.5689697,505.2302551z"/>
<g>
	<path fill="#FFFFFF" d="M537.8522339,556.5192871c-6.0054321-3.3804321-9.6075439-8.6342773-12.0761108-12.8477173
		c-1.0507812-1.8060913-2.0367432-3.6898804-3.0083618-5.4927368l-1.1295776-2.0979614
		c-1.1842651-2.2558594-2.6708374-4.8035889-4.3786621-7.0703125c-0.6380005-0.8330688-1.4480591-1.7218628-2.2860718-2.5617676
		l-2.4211426-2.5549316c-0.7556763-0.8327026-1.4656677-1.5847778-2.0630188-2.3404541
		c-0.6009216-0.7484741-1.010437-1.4196167-1.2054749-1.9151001
		c-10.6511536-27.1611023-13.1550293-42.5670166-17.0173035-69.6226501
		c-1.9784546-13.915741-10.5036011-25.1876526-24.3423767-42.1185913c-1.7359009-2.0770569-3.6283264-4.5405884-5.6895752-7.1638794
		c-1.4073792-1.8536072-2.8971558-3.7284241-4.3660583-5.6402893c-4.5405884-5.689209-8.2549438-9.9271851-11.1665039-12.759552
		c-4.9547729-4.2030334-9.3193359-7.8875732-13.3061523-11.2629395c-5.6348877-4.7352295-10.3967896-8.7626648-14.7646179-12.422699
		c-8.3164673-6.7964783-14.6998596-11.5792847-22.0552063-16.5603027
		c-10.26651-6.9476013-21.2778931-10.4212341-32.6340332-10.4212341c-11.6159363,0.0176392-20.1853943,3.7564697-23.0703125,5.7612
		c-9.7957764,6.6964417-17.1792297,10.8131104-25.4881592,14.2572327
		c-5.9918518,2.5088501-12.2539368,4.5628967-20.1627197,7.1513062c-2.5264587,0.8308411-5.2430115,1.7304688-8.175415,2.6916504
		c-8.9930115,3.0328369-15.3832092,8.2283325-19.9043579,12.4929199c-1.0892639,1.0154724-2.122406,2.0259399-3.1152344,2.9763184
		c-1.1158752,1.1194458-2.1417847,2.1051025-3.1522827,3.0047302c-2.0522156,1.8852539-3.4808044,2.8780823-4.7546997,3.3649292
		c-1.370285,0.4955444-3.5686188,0.8204651-6.7507629,1.039978c-1.6549225,0.1004028-3.3487549,0.1687927-5.0234985,0.2479553
		c-1.2087097,0.0755615-2.4210663,0.147522-3.5578308,0.2018433c-10.3175812,0.5905457-18.5934296,6.380127-23.9296417,10.7588196
		c-2.7866821,2.2558899-5.3520203,4.5999451-7.8490448,6.8875122l-1.1806335,1.1054382
		c-3.1558838,2.8215942-5.3679047,4.7457275-7.5201721,6.135437c-7.3164215,4.7424927-14.2360077,5.4330444-21.8511353,6.2113953
		c-3.8903351,0.3443604-7.9418793,0.7556763-12.2485657,1.6797791c-5.1605682,1.0611877-10.0293427,2.6952515-14.8840942,4.9795837
		c-5.4769135,2.5847778-10.999527,5.881012-17.9082794,10.6987c-2.962616,2.0558167-5.9162827,4.1889954-8.824234,6.3186035
		c-2.5300751,1.837738-5.0742111,3.7355957-7.6219406,5.5172119c-11.4036331,8.015625-21.1868973,13.3011169-31.7963104,13.3079529
		c-10.4932175,0.0352478-17.9237823-6.0793152-18.9464722-15.5782776
		c-0.9032211-8.3600159,3.3789902-16.8222351,12.0272522-23.8626709l4.7424622-3.8180237
		c3.5632248-2.8536072,6.9051819-5.4909363,9.8818283-8.1002197c5.0479965-4.3433838,8.4636612-7.8191528,11.104599-11.2366638
		c6.5028381-8.5795288,8.1826477-17.4177856,5.3466415-28.5875244
		c-2.5070724-10.0891113-10.2701035-16.9557495-23.6817017-20.9497375
		c-4.7935562-1.4512634-9.6569214-2.2698975-14.2237701-3.0274048l-1.5793839-0.286438
		c-1.404129-0.1986389-2.6707993-0.3742371-3.7690659-0.5901489c-1.4602661-0.284668-2.5106697-0.5552368-3.0871201-0.8031921
		c-7.2725601-3.2102051-23.0843544-13.7966309-26.2506943-15.9190063l-1.3019371-0.8503418l-0.8751526,1.2666931
		c-2.8975105,4.1641235-5.1569805,7.4535522-6.8770618,21.8543396
		c-1.8680038,15.8877563,11.217207,35.3261108,33.7866135,38.8457642c1.2670326,0.2091064,2.2879257,1.1123352,2.6341019,2.3825989
		c0.3159485,1.2159119-0.1036377,2.5178528-1.1230659,3.3138123c-23.8785667,18.7953491-28.9179001,26.8444519-30.1687355,47.943512
		c-0.7855263,13.0657959,3.8144035,25.8994751,12.5753021,35.2012024
		c9.5863953,10.1632385,23.4585953,15.4940491,40.1632004,15.4940491c4.4297485,0,9.133316-0.4109497,13.9373093-1.1385498
		c0.1651993-0.0561523,0.3267441-0.0561523,0.5217819-0.0561523c0.7081833,0,1.4178085,0.2389526,1.9748535,0.7063904
		c0.6959457,0.5271912,1.1493607,1.3634644,1.1982956,2.2278442c1.1299286,14.6962585,3.793541,26.5846252,7.1110153,31.9013977
		c0.8276596,1.3180542,0.6185608,3.036377-0.5113678,4.0939941c-1.0137024,0.9420776-2.6513748,1.8589478-4.698555,2.6848145
		c-5.0987091,1.9752197-12.8142471,3.2156372-20.5153885,3.2156372c-4.7967987,0.0244751-8.3884277,3.3314819-11.2593307,10.4370728
		c-0.9402924,2.2947388-1.6955872,4.7719727-2.4336624,7.1231689l-0.1968384,0.6747437
		c-0.4113083,1.1911011-0.7412949,2.3016357-1.1015015,3.3419189c-0.3339386,0.888855-0.6801147,1.7078857-1.0543594,2.4106445
		c-0.9543228,1.6798096-2.3861389,3.3948364-4.3610153,5.1588135c-0.5973549,0.5164185-1.3285408,0.7729492-2.1051216,0.7729492
		c-0.1651726,0-0.3810806-0.020874-0.5552483-0.020874c-0.948925-0.1864014-1.7888145-0.7592773-2.2630692-1.6199951
		c-2.3631592-4.213501-6.0811234-6.9195557-11.0081863-8.005249l-0.1353035-0.0352783H47.587059
		c-7.3024254,0-19.9831409,6.2340698-24.6183891,17.8730469c-0.4638214,1.0647583-1.4390125,1.8485107-2.6337128,1.9539795
		l-0.5905399,0.1158447c-5.8140898,0.6113892-9.5021877,3.3066406-11.5651808,8.4794922
		c-0.8589859,2.2422485-1.4178071,4.7161865-1.8061099,6.8422241l-0.3127093,1.605957
		c-0.3393383,1.7780151-0.6801157,3.6337891-1.1335263,5.383728c-0.3742437,1.4091797-0.8503246,2.6287231-1.6232815,4.0270996
		c-0.3742435,0.7203979-0.7556841,1.3213501-1.0896246,1.9363403c-0.2774439,0.425354-0.5412136,0.8330078-0.8028244,1.2511597
		c-1.2738675,2.4282837-1.939949,4.8950806-0.8960254,9.0278931c0.4566491,1.890686,1.9852902,3.5809326,4.4714913,4.9055176
		c1.8730168,1.0194702,4.2260737,1.8661499,7.0933805,2.5725708c5.1202745,1.2824707,10.1157064,1.6164551,11.0977621,1.6164551
		c0.7135563,0,1.4145432-0.2285156,2.080265-0.5621338c0.5149441-0.2741699,0.9435253-0.6642456,1.4973335-1.0543213
		c0.567482-0.4883423,1.3703327-0.7168579,2.1047611-0.7168579c0.1651955,0,0.3602085,0,0.4901142,0.0349121l2.3879623,0.4465942
		c1.943573,0.3616333,4.3592186,0.8258667,6.7946815,1.3353882l0.3742409,0.0910645
		c2.3490982,0.4393921,4.6316261,0.8855591,6.4801712,1.2443237c0.982029,0.1860962,1.8816528,0.3267822,2.5477371,0.4811401
		c0.741291,0.0773926,1.3109322,0.1230469,1.6779785,0.1021729l0.0071945,0.020874
		c10.0923424-0.5059204,14.3497238-4.4243164,17.1435928-8.1703491c0.8312531-1.1104736,1.5286407-2.2069702,2.2228241-3.3840332
		l1.163002-1.9503784l0.8312531-1.4725342c0.827652-1.3811035,1.6517105-2.6671753,2.5513382-3.918396
		c0.618576-0.8502808,1.5585022-1.3037109,2.5898361-1.3037109c0.270607,0,0.5448074,0,0.8172455,0.0773315
		c1.1558075,0.3127441,2.3278351,0.5272217,3.3138275,0.7276611c2.3174286,0.3583984,4.4805145,0.5552368,5.3941422,0.6325684
		c0.6589127,0.0140381,1.2825089,0.0770264,1.9255829,0.0770264c9.5690918,0,16.6678467-5.3308105,22.5452728-10.3701172
		l1.9327469-1.612854c0.9453583-0.8085938,1.7992477-1.5358276,2.6690369-2.2667236
		c1.1842346-1.022644,2.7197113-2.2738647,4.3505783-3.3102417c2.8672562-1.9223022,5.257019-2.8359375,7.6468048-2.8043213
		l0.5724945,0.020874c2.3141861,0.1018677,10.9221573,0.7449341,25.549675,3.0011597
		c0.6398468,0.151123,1.2670288,0.1896362,1.8960571,0.1896362c3.3102875,0,7.506134-1.1702271,12.515564-3.3699951
		c3.5948944-1.6376343,7.7015076-3.8587036,11.8639069-6.4661255c0.9064331-0.6077881,1.9766235-1.0820923,3.2893677-1.6865845
		l0.3353729-0.1443481c1.2054901-0.5375977,2.496994-1.1453857,3.8057709-1.7884521
		c2.3757324-1.2019043,5.8986511-3.2753296,8.7450562-6.8738403c1.6729736-2.0906982,3.897171-6.4661255,6.0955353-10.911377
		l2.3717346-4.8986206c1.3213654-2.6920166,2.7237244-5.5629272,4.1170349-8.4093018
		c0.5534821-1.0932007,1.6621399-1.7607422,2.8885193-1.7852173l0.0438995,0.0244751h0.862915
		c4.5348206,0,9.9502258-0.730835,14.6926575-1.3951416c2.0626678-0.3231201,4.1062775-0.6221924,6.0634613-0.9453125
		c4.3613892-0.6923828,8.1002197-1.2861328,10.8940887-1.4268188c0.6869507,0,2.5283051,0.140686,5.0918732,0.3375244
		l5.8000641,0.3900757c7.2725525,0.4041138,13.2644043,0.6254272,18.2087402,0.5620728
		c2.9360046,0.0212402,5.5118103-0.0456543,7.6853027-0.1896362c3.8831787-0.298645,7.4783936-0.8679199,10.3651123-1.7711792
		c0.8046265-0.2352905,1.6902466-0.5235596,2.5549316-0.881958c0.4163818-0.1900024,0.8557129-0.2670288,1.305542-0.3127441
		c0.7923889,0,1.6092529,0.3443604,2.2350159,0.9345093c1.5793762,1.5358887,3.2854309,3.1311035,4.979248,4.649292
		c1.0227051,0.8222656,1.3901062,2.1893311,0.947113,3.3807983c-0.4023132,1.2404175-1.4897766,2.0979004-2.7884521,2.2138062
		c-0.6412354,0.0352783-1.2843018,0.1194458-1.8712158,0.1896362c-2.0364075,0.2813721-5.7756042,1.1072388-7.6187134,3.5074463
		c-0.6254578,0.8327026-1.5621338,1.2440186-2.537323,1.2440186c-0.4199524,0-0.8730164-0.0809937-1.2911682-0.2425537
		c-0.4325256-0.2072754-0.8823242-0.3656006-1.3566284-0.4919434c-0.9679871-0.2741699-1.9327087-0.3270874-2.7200928-0.3339233
		l-0.4181213,0.0068359l-1.0856934-0.0068359l-1.6481018,0.0457153h-0.8823547
		c-2.9007263,0-9.7162781-0.0388794-15.5782166,0.9417114c-3.6229858,0.6218262-6.4992676,1.5006104-8.5320435,2.6531982
		c-1.9241486,1.0543213-4.1415405,3.050415-3.9572906,6.3078003c0.3271027,6.0548096,8.8436737,22.3570557,14.631485,28.1063843
		c1.1069031,1.1453857,4.9320984,2.3228149,9.1437683,2.3228149c0.4199829,0,0.8960266-0.0352173,1.3530579-0.0561523
		c0.0611572,0,0.1615601-0.0072021,0.2299194-0.0072021c1.1983032,0,2.2771606,0.6783447,2.8359985,1.7467651
		c5.9335327,11.6915283,16.1932068,19.5211182,25.5302734,19.5211182l0.6221313-0.0388794
		c8.9066772-0.3231201,32.966217-9.013855,49.8255005-17.029541c0.2195129-0.0701294,0.4498291-0.1266479,0.6869812-0.1791992
		c0.5289917-0.151123,1.1665955-0.2284546,1.8237-0.3267212c0.9910278-0.151123,2.1245422-0.2918091,3.3192444-0.4113159
		l1.6938171-0.1860352c3.7143555-0.4710693,7.9382935-1.0895996,11.041626-2.5444946
		c2.846405-1.3915405,6.9911499-6.7295532,10.5140686-13.5926514c0.5905151-1.0751953,1.6797791-1.7358398,2.8500061-1.7358398
		h0.2918396c1.3055725,0.147522,2.4002075,1.039917,2.7708435,2.3015747c0.4285889,1.3598633,0.9241333,2.600647,1.518219,3.6934814
		c2.8849182,5.394165,8.0210571,8.1704102,15.2687683,8.1174927c0.3918762,0,0.7909851,0,1.2019043-0.0172729
		c4.9868469-0.1864014,10.4493408-1.8485107,15.2112122-3.3948364l2.7092896-0.8891602
		c4.0976257-1.4127808,7.9350586-2.6952515,11.5299377-3.3174438c1.2915039-0.2213135,2.7514343-0.3407593,4.4401855-0.3688354
		c0.7661438,0,1.5937805,0.0280762,2.4211121,0.0596924c1.5145874,0.0878296,3.0381775,0.2144775,4.587677,0.3267822
		c1.0335083,0.0564575,2.0698547,0.1900024,3.120636,0.2072754c1.4761047,0.1162109,3.0083313,0.2144775,4.6247864,0.1864014
		c4.4470215,0.0280762,7.8735046-0.6326294,10.9430237-2.1083984c4.4858704-1.8557129,7.994812-4.3610229,10.2981567-6.0407715
		l0.8521423-0.6185913c0.56604-0.4429932,1.2317505-0.583313,1.8716125-0.6466675
		c0.7711182,0.0633545,1.5109558,0.3127441,2.1309814,0.8222656c6.3150024,5.6262817,19.9165955,15.0334473,39.9350281,14.9880981
		h2.038208c4.7492676-0.1687622,8.4920654-1.7503052,10.5021973-4.494873
		c1.3494263-1.7639771,1.7744141-3.949707,1.2123413-6.0969238c-0.2497559-0.871582-0.0773926-1.8064575,0.3760376-2.5617676
		c0.4987793-0.734436,1.2684937-1.2688599,2.1680908-1.4163818c3.2469482-0.59375,5.9389648-1.7744141,7.8753052-3.4790039
		c1.760376-1.59198,2.920166-3.8515015,2.9414062-5.8335571c0-1.324585-0.4746094-2.4210205-1.4901123-3.4016113
		C545.4605713,560.8173218,544.2093506,560.0688477,537.8522339,556.5192871 M395.6835938,531.8044434
		c-2.177063,2.7056885-5.4556274,3.5211182-8.4269409,8.8026123c-5.9810791-2.343689-7.0246277-10.211792-8.1405334-13.6311035
		c4.7932129-0.9067993,16.0773621-3.046814,21.9897156-3.9640503
		C398.6743164,526.1079712,396.9398499,528.1774902,395.6835938,531.8044434"/>
</g>
<path fill="#DB0A40" d="M243.0235291,89.213913c-39.4395142,0-71.4042053,32.3004608-71.4042053,72.2440948
	c0,39.9066315,31.9823303,72.2754517,71.4042053,72.2754517c30.0618286,0,53.5783691-13.6206665,65.6653442-34.9129639
	l-35.0377808-16.2249298c-4.4877319,9.67276-14.9456787,16.4815063-27.0977936,16.4815063
	c-16.2176971,0-29.4133911-12.0851898-29.4133911-26.9099426c0-0.9924316-0.353363-0.6199951-0.2918396-1.5725403
	l95.4357147,0.0248566c0.3127136-2.9079437,0.4606018-5.9339142,0.4465637-9.0279083
	C313.3960876,114.8427582,282.4450684,89.213913,243.0235291,89.213913 M216.9923706,145.7934265
	c0-14.5591888,11.8354492-26.3737411,26.3701782-26.3737411c14.6134949,0,26.4194031,11.8145523,26.4194031,26.3737411H216.9923706z
	"/>
<path fill="#DB0A40" d="M164.0901642,76.4486084c0-35.2836151-29.1622162-63.8661079-65.1155014-63.8661079
	c-1.0964661,0-6.1534271,0.0439024-7.2110291,0.0860043H16.0228539v216.2418976h45.9740219V49.9571991l27.4000282-0.2389412
	c17.0050507,0,29.8808289,12.6933365,29.8808289,28.2924538c0,15.6415863-13.7631683,28.3241272-30.7383499,28.3241272
	l-10.6144867,0.2371368v51.4718018l45.8948593,70.8666229h54.1670761l-63.5058899-90.3560791
	C142.9842682,131.6966705,164.0901642,106.5072021,164.0901642,76.4486084"/>
<path fill="#DB0A40" d="M441.188385,107.3575287c-11.5054626-11.3489761-26.776062-18.2717209-43.4453735-18.2717209
	c-35.6654053,0-64.5638428,31.6588135-64.5638428,70.6816483c0,39.017746,28.8984375,70.6802216,64.5638428,70.6802216
	c16.869751,0,32.1245117-7.1811523,43.6000977-18.7618713v17.4282684h42.9376221V0H441.188385V107.3575287z
	 M410.0142517,195.7876587c-17.4879761,0-31.7434082-15.5062561-31.7434082-34.7286987
	c0-19.1799774,14.2554321-34.7287216,31.7434082-34.7287216c17.5059814,0,31.6959229,15.5487442,31.6959229,34.7287216
	C441.7101746,180.2814026,427.5202332,195.7876587,410.0142517,195.7876587"/>
<rect x="951.3702393" y="1.7168424" fill="#DB0A40" width="43.2099724" height="227.5080414"/>
<path fill="#DB0A40" d="M812.0267334,174.5605164c0,12.9829865-11.0552979,23.4761963-24.6835327,23.4761963
	c-13.6419067,0-24.6903687-10.4932098-24.6903687-23.4761963V96.6286087h-42.8833008v86.2199631
	c0,29.1658173,30.1726685,52.7633057,67.4368896,52.7633057c37.1937256,0,67.4189453-23.5974884,67.4189453-52.7633057V96.6286087
	h-42.5986328V174.5605164z"/>
<rect x="878.3459473" y="1.7168424" fill="#DB0A40" width="43.2099724" height="227.5080414"/>
<path fill="#DB0A40" d="M666.8500366,111.1316299c11.8635254-10.9869308,19.067749-25.772789,19.067749-41.9940872
	c0-14.7261238-5.6190796-28.2449532-15.5397339-38.8788681c-10.2859497-11.3208675-28.534668-16.3371716-53.1832886-16.3371716
	h-73.8148193v215.1540833h95.3709717c36.4980469-0.6290283,65.9431152-28.3417511,65.9431152-62.1935272
	C704.6940308,142.247818,696.0281372,124.6576538,666.8500366,111.1316299 M630.7420654,191.3564911h-41.3510742V51.0572586
	h28.8197021c12.664856,0,22.9648438,10.2895393,22.9648438,22.9015503c0,12.6915359-10.2999878,22.9335709-22.9648438,22.9335709
	h-15.0090332v38.8770752h27.5404053c15.3533325,0,26.9393921,12.3734283,26.9393921,27.7371979
	C657.1157837,179.3519135,647.423584,190.2949371,630.7420654,191.3564911"/>
<path fill="#DB0A40" d="M530.1403198,560.2196045c-10.9955444-6.399231-15.4144897-18.5124512-22.2408447-28.0567627
	c-2.3789673-3.5387573-6.5996399-5.7702026-8.799408-9.2211304c-7.9264221-21.457489-14.7034607-42.8904724-16.7679138-67.482605
	c-1.6639404-6.0969238-2.9115601-12.296051-6.2412415-18.0028992
	c-9.9307556-16.1158752-22.7928772-30.8189697-35.2468872-45.6383057c-1.1263428-1.1158752-1.1403503-1.240387-3.5125122-3.5088806
	l-43.5263062-36.0745544c-5.3362122-4.0447083-11.3856506-6.613678-17.4354553-9.3600464
	c-9.1981201-3.4858704-21.6733398-2.7129211-30.6329041,1.1299133
	c-9.3791199,4.9619751-17.8132324,12.1377258-27.7019043,15.4551697
	c-14.2903748,6.4485168-30.4468689,7.7382202-42.7429504,18.7233582
	c-7.142334,6.255249-13.2165833,15.9701233-23.8504944,14.3450317
	c-11.9146271-0.5552368-22.5765991,3.8424683-31.5271454,11.2521362c-8.0930176,7.2865906-15.79776,15.9701233-26.2578278,17.973053
	c-9.1650391,3.8709106-20.3538513,2.0331421-29.6980591,5.5402222
	c-14.8578339,3.6546631-26.6180725,15.4411316-39.2426834,24.4654846
	c-12.6598663,7.3128357-24.7608871,15.2129822-40.5428162,14.8578186
	c-10.3071671-0.7204285-20.2098427-7.8609009-23.5060654-17.7463379
	c-3.1346779-11.3896179,0.3231163-23.1300659,9.3351898-30.8437805
	c9.3230133-11.2100525,24.1984482-17.8413696,31.5221329-30.6926575c3.8284149-6.7716675,3.2962189-17.7938538-1.8273468-24.2387695
	c-9.7483215-10.0469971-23.7155228-10.4003601-36.3627968-13.5119629
	c-8.0825844-2.2105713-14.3256149-8.428772-21.4945107-12.2575684c-2.7428017,4.1785583-3.6424255,8.7871704-3.2890244,13.9056702
	c1.4757156,11.5508118,10.2805138,22.0335999,21.3167419,26.0520325c6.3992081,2.7463684,13.7685928,0.734436,20.3750458,2.1842651
	c1.8467484,0.7517395,3.6531906,2.5844421,3.8514709,4.6035767c-0.3566132,1.8165283-0.541214,3.6600342-2.196167,4.9511719
	C71.631134,397.6442261,60.8072395,405.902771,52.19244,416.5399475
	c-9.1790695,9.9347229-10.2348671,27.3366699-5.4629021,39.8399963
	c5.3153648,14.2781372,20.209877,23.6712952,34.5178528,25.4953308c10.4388809,1.6341248,19.8338318-1.1316833,29.3486404-3.1803284
	c1.2806778,0,1.8431244,1.3386536,2.3965988,2.0274048c0.9208298,8.4553833-0.3638382,15.9614868,1.4901123,23.6925049
	c1.6409149,7.1340027,4.0306702,12.0819702,6.6345444,19.057251c0.3534012,2.3793335,0,4.9515381-1.6585464,6.828125
	c-5.3329697,4.0202637-10.8501816,6.7684326-16.7258072,9.3618774l-14.2885513,0.8996582l-2.7427444,1.3317871
	c-5.3257751,6.2340088-5.4837723,12.65448-8.7835999,19.6686401c-4.3908844,7.3092651-12.483902,10.8339844-19.252285,15.0442505
	c-2.1839523,3.4718018-4.5981827,7.1513062-7.7011642,9.916687c-2.3825645,2.1436768-5.3189392,2.7727051-8.4409943,3.0821533
	c-4.9338989,5.7313232-6.0357552,13.6278687-7.3236313,21.3412476c8.0685196,0.7416382,16.5163498,5.1411743,24.4092903,0.7416382
	c6.7824707-3.1486816,8.2477493-11.4104614,13.3785172-16.3760376c4.0166092-4.4067383,10.1013107-1.1068726,14.8754349-0.1755981
	c7.1512909,0.3303223,12.2924576-4.796814,18.3278885-7.2218018c4.2098541-2.7161865,7.6608047-7.5306396,12.0905533-10.2471313
	c8.4496613-4.065918,20.1800079-1.9082642,29.0215149-0.2144165c6.9422455,1.7991943,14.2867737,0.6818848,20.3541718-2.0310059
	c5.6701508-3.5214844,11.0045624-7.9282227,17.4019928-9.4039307c5.6931458-2.9238281,8.4672699-9.3406372,10.8130951-14.682251
	c1.8503418-4.9411011,6.6399384-8.8065796,6.2657013-14.5206299c-1.4897766-1.2720947-3.1310272-4.0515747-5.3484497-3.8302612
	c-2.758606,3.8302612-4.7809601,7.87854-7.8911438,11.5860596c-13.2604523,18.1015625-23.6748657,19.8198242-50.6232452,19.8587036
	c-20.0148392-0.7344971-37.9792786,5.3696289-51.7283859,20.96875c-0.9169235,0.5656738-2.2138214,0.1651611-2.9428711-0.5588379
	c-0.514946-2.1925659,1.2914963-5.8684082,2.2051849-7.5201416c12.2748032-17.4335938,31.3673401-21.4610596,51.5559769-21.8792114
	c10.9959259-0.7380371,21.4679108-2.5653687,30.8067322-7.3689575
	c10.4529114-5.3204346,17.5955658-13.6491089,22.0181122-23.9138794
	c2.3580933-11.5547485,3.2541199-24.0368347,6.1973572-35.0431824c0.3706512-1.1245422,3.0975647-1.9259338,3.9903412-1.5603027
	c1.1331787,0.2108459,3.3329315,1.1842651,3.3437347,2.4599304c-2.0259552,11.3823853-5.6651154,24.760498-1.2566071,35.7564697
	c8.813797,11.5860596,25.1614075,5.3027344,37.0763855,4.7406616c12.4716949-1.1036987,22.5254974-0.147583,34.440506,0.5869141
	c5.8579712-0.1619873,10.2153931,1.2788696,14.7998657-2.4142456c1.2825012-2.038208,1.7992554-4.7827759,1.4178162-6.9829102
	c-0.3742371-3.2821655-3.1450806-5.2814941-0.0212402-8.0296631c0.9367065-0.7589722,3.6672668-0.2810669,4.3981018,0.6643066
	c1.6621704,4.5610352,2.4070435,9.5338135,5.3466492,13.5857544c5.8723755,7.5272827,14.5065918,13.3921509,22.5733643,17.6444702
	c7.6835022,5.2991333,14.1215515,12.7915649,14.682251,22.1743164c0.0506897,4.7687378-4.3894958,8.0192261-8.0617371,10.2614746
	c-6.2286377,3.0993652-13.0110779,5.699646-20.3660583,4.9547729c-9.7306519-4.7298584-12.2924805-14.9844971-18.7200928-22.5187378
	c-3.3174133-3.6758423-8.2686157-4.3717651-13.2060852-4.055481c-5.3502808,0.5552979-10.6548157,0.7661743-15.4203186,2.4110107
	c-1.2702637,1.0928955-1.6445007,2.7971191-1.4897766,4.4416504c3.3329468,6.0375366,7.0001526,11.8850708,10.6706238,17.9223022
	c4.2487488,2.600647,10.1153564-1.4476929,13.7563171,3.0993652c3.1451111,4.8215942,5.181488,10.479187,9.9221497,14.1831055
	c4.6085815,3.9817505,11.5896606,5.8335571,17.6391296,3.2965698c13.5594788-4.2487183,27.1715088-8.7011108,39.8101807-15.5044556
	h4.2206421c5.1289368-0.4990845,10.8217468-0.2040405,14.4763794-4.065918
	c4.0238647-5.8407593,7.348114-11.340332,10.4442749-17.5955811c3.1152039-4.2167358,1.6726074-10.6407471,0.3583984-15.2022095
	c-6.2430115-7.7590942-9.7447205-16.3828735-13.0409546-25.2103882c-3.1364441-0.9244385-5.8547363-2.7272339-9.367218-2.5444336
	c-1.6513672,0.7167969-4.0325012,0.3656006-4.958374,2.168457l14.5170898,28.678894
	c0.9276428,2.2174072,2.0363464,5.373291,1.5041504,8.2758179c-2.0508118,6.0548706-5.1466064,11.9376831-10.098114,16.3407593
	c-0.9100647,0.5376587-2.0065308,1.0579834-2.7269287-0.1860352c1.6304626-6.2203369,4.5524292-13.0444946,4.1922607-20.1925659
	l-14.1600952-25.5407104c-1.6412964-3.4545288-4.5844727-6.5996094-4.415741-10.6339111
	c-0.0244751-1.8485107,1.655304-3.1274414,3.1278076-3.8586426c6.2218018-2.0065308,13.7243347-1.6866455,18.503479-6.6417542
	c6.2606506-9.6990356,7.5381165-19.2573547,9.1826477-30.7908936c0.3638306-0.7592773,1.8363037-2.1648865,2.9482422-2.1648865
	c1.0860596-0.3936462,2.3422546,1.223175,2.9028931,1.8064575c1.8536377,12.6296692-0.7009888,25.4352722-8.0631409,35.3804321
	c-0.3321533,1.2792358-0.8963928,2.9273682,0.5674744,3.8410034c6.9771423,2.2246094,14.3148193,0,20.1764221-3.1242065
	c7.5432129,0.1759644,14.4889832-1.6621094,21.2818604-2.762207c0.730896,0.3620605,1.4969788,1.1000977,1.4969788,1.8417358
	c-4.5948792,5.1271362-7.1707153,10.8127441-8.4445801,17.4440308
	c-5.5068054,5.7072144-13.3835144,10.6972656-13.9229431,18.9274292c0.9064941,4.0378418,4.4153442,0.1719971,6.7928772,0.5905151
	c1.0979004,0.1334839,1.835968,1.0751953,1.835968,2.1540527l-5.4978027,8.0717773
	c-2.9486084,4.779541,0.5462952,10.300293,0.5462952,14.8581543c1.3022461,3.6895752,5.7140198,5.5172119,9.5496521,5.5172119
	c8.291687-0.3443604,15.6066589-3.5038452,22.9512024-6.0796509c8.0613708-3.5002441,18.1328125-3.2893677,26.9534912-1.8553467
	c8.6323853-0.5412598,15.056427-6.2728882,21.4502258-11.9657593c3.5089417,0.0385132,6.6435547,2.4178467,8.9998474,4.958374
	c9.9134827,10.6479492,22.7860718,15.2022095,37.2800293,14.822937l1.2562866-0.7203979
	c0.9434814-0.9244995,0.562439-2.5794067-0.5534668-3.2825928l-8.6043091-4.3994751
	c-6.0567017-3.8691406-13.5663452-8.9926758-15.6027832-15.7678833c-1.8643494-6.0797119-5.160553-12.6721191-8.8242188-18.5513306
	c-1.3019409-2.9626465-4.217041-5.3204346-5.5085754-8.2970581c0.3303223-0.3652344,0.7221985-0.8996582,1.2915344-0.7380371
	c9.5392151,3.2929688,15.203949,12.6932983,19.6106873,21.1623535c7.0249939,9.6921997,17.0982361,17.9572144,30.3097839,15.7714844
	l1.1000366-0.9629517c0.5584717-0.7167969,0.3897095-1.6513672,0-2.1785278L530.1403198,560.2196045z M385.9881897,431.0746155
	c-0.2040405-0.063324-0.4498291-0.1266479-0.4498291-0.1266479s-0.0424194,0.1266479-0.0597229,0.20401
	c-0.0579529,0.0348816-0.1162415,0.1054382-0.1162415,0.1054382c-0.5217896,0.5235901-1.4422607,0.8924255-2.3930054,0.2562256
	c0,0-0.1072388-0.073761-0.2302856-0.1439514c-0.0172729-0.1298828-0.0647888-0.2950745-0.0647888-0.2950745
	c-1.4023132-7.3096313-3.0698547-15.0528564-6.030365-22.2394104c0.0176697,0-1.6955872-2.9324341-1.6955872-2.9324341
	l-0.669342-0.9280396l-1.4425964-2.0979309c-1.1806946-1.8431396-2.2966003-4.3592224-0.7625427-7.2952271l0.1651917-0.2583618
	c1.3317871-1.3105774,3.6985168-1.4426575,5.3081055-0.8345032l0.2159119,0.1072388
	c3.1296082,2.1346436,5.1379395,5.7471619,6.6417542,8.3442078c1.8291016,4.3048706,2.8114929,9.6921692,2.8114929,15.3130188
	c0,4.2451477-0.5588379,8.6043701-1.6779785,12.6947937C385.5383606,430.9479675,385.7841492,431.0112915,385.9881897,431.0746155
	 M456.0411682,552.0459595c0,0-0.065094,0.0914307-0.0510864,0.1087036c-0.0579529-0.0172729-0.1651306,0-0.1651306,0
	c-3.3822632,1.0719604-7.2797546,1.5358276-11.4403687,1.3109131l-0.2371521-0.0352783
	c0.0262756,0-0.7696838-0.3231201-0.7696838-0.3231201l-0.7996216-0.5059204
	c-0.4058838-0.3656616-1.0277405-1.0123291-0.6729126-2.0734863c1.5955811-4.7651367,6.2833252-10.2999878,12.2575378-11.5194702
	c0.1439514,0,0.5077515-0.0421143,0.5077515-0.0421143l0.8345032,0.0421143l1.3425903,0.1687622
	c0.6535034,0.1932373,1.741333,0.7203979,2.0259705,2.3123779c0.1104736,0.8363037,0.1615601,1.8309326,0.1615601,2.8532104
	C459.0351257,547.1401367,458.4586487,550.2078857,456.0411682,552.0459595 M478.4594727,502.0114136
	c-0.0209045,0.1263123-0.5394287,1.5214539-0.5394287,1.5214539c-0.0226746,0.1194458-0.4937134,1.6164246-0.4937134,1.6164246
	c-0.5217896,1.4516296-1.3354187,2.2318115-2.6128845,2.5549316c-0.7625122,0.2108765-1.463501,0.1122742-1.9957275-0.3231201
	c-0.5728455-0.40448-0.8855896-1.1000671-0.8855896-1.8838196l-0.1194763-1.6164551l-0.5710754-5.6438904
	c-0.4570007-2.6142883-1.2529602-4.6384583-2.4476624-6.360321c-0.0403442-0.0212402-2.472168-2.8536072-2.472168-2.8536072
	c-0.0932312-0.0950012-2.8255615-3.1699219-2.8255615-3.1699219c-2.1364441-2.1576538-4.0868225-3.1591187-6.0950928-3.2573547
	c-1.5761414,0.5023499-2.9871521,1.5286255-4.5384521,3.2012024l-1.9381714,2.4246826l-1.7236633,2.3228149
	c-0.6344299,1.0299072-2.0083313,0.4217529-2.0594177,0.4217529c0,0-0.0931702-0.0597229-0.2195129-0.0982666
	c-0.0651245-0.1230469-0.1072388-0.3058777-0.1072388-0.3058777c-0.4181519-1.0715942-0.5973511-2.1295471-0.5904846-3.1274109
	c0-1.7359314,0.511322-3.3419189,1.0507812-4.6175842l1.4936829-3.0749207l1.686615-3.5808716l0.2634583-0.3515625
	c0.492218-0.4919128,0.9823914-1.3703003,1.5253601-2.8676453l0.4937134-1.254425l0.9679871-2.5549316
	c1.5462646-3.2609863,3.7745056-4.1501465,7.0915527-2.7478333c2.5952759,1.3670654,4.1609497,3.5563965,5.362854,5.5136108
	l0.8273315,1.3670959l1.0474854,1.7041931l2.1594543,2.7341919c5.9440308,6.6240845,8.8184814,12.9214783,8.8184814,19.3980408
	C479.0129089,498.6867676,478.8304443,500.3456726,478.4594727,502.0114136"/>
<path fill="#DB0A40" d="M42.9676704,581.0411987c5.710453-3.324646,9.3528519-9.5618896,12.3100967-14.9175415
	c-0.5602875-1.9892578-2.5722046-3.4545288-4.2379494-4.947937c-1.1050987-0.9104004-2.7391777-0.151123-4.0519066,0.2036743
	c-4.0378723,3.503479-8.2160873,6.2271729-12.6282005,9.0174561c-1.8607826,1.2544556-1.0979042,4.0202637-1.4897804,6.0231934
	c0,1.8449097,2.2101974,3.1414795,3.310257,4.223877C38.2129784,581.5751953,40.7905807,581.7440186,42.9676704,581.0411987"/>
<path fill="#DB0A40" d="M23.7207565,581.5751953c-2.9395866,1.4865723-6.0670643,4.2415771-6.7874832,7.5310059
	c-0.9280529,5.8792114,0.3864784,11.371582-4.1767502,15.6275024c-0.1950636,1.1137695-1.3422384,2.3930054-0.1950636,3.5175171
	c4.0202646,1.2299805,7.8699102,2.895752,12.8178434,3.4297485c2.2141533-7.1721802,3.8356361-15.0827026,6.430872-21.2814941
	v-1.8381348C29.6122131,585.8167725,27.3808117,582.3096924,23.7207565,581.5751953"/>
<path fill="#DB0A40" d="M302.0557861,561.885376c3.6812439,4.055481,3.4898071,10.2542725,7.7259521,13.388855
	c5.5014038,0.9281006,10.4248657-1.2788696,14.6822205-4.5822754c2.3739319-2.038208-1.1191101-4.6035767-1.4725037-7.0037842
	c-2.4070129-3.4368896-0.7661133-10.4547119-6.6136475-10.616272c-5.9123535,0.8960571-11.7670898,1.0860596-17.6391296,1.1209717
	l-1.6607056,1.1176758C295.9959106,558.7647095,301.1262817,558.7647095,302.0557861,561.885376"/>
<polygon fill="#A0A1A1" points="788.9071045,513.0667114 827.0496826,513.0667114 827.0496826,336.9232178 902.7095337,336.9232178 
	902.7095337,301.6374207 713.2404175,301.6374207 713.2404175,336.9232178 788.9071045,336.9232178 "/>
<path fill="#A0A1A1" d="M999.8339844,349.236908c-2.0806274-26.1470337-26.2509766-47.6044922-49.296875-47.6044922
	c34.0101318,21.2483826,12.6897583,67.3451233,0.1547852,86.2778931l-47.9262085,71.2210693V353.5662537h-35.2609863v159.5004578
	l33.7290649,0.0072021c0.0457153,0,0.0878296,0.0140381,0.1403809,0.0140381c0.0420532,0,0.0877686-0.0140381,0.1334839-0.0140381
	c4.8179932-0.0421143,9.0559692-2.4739685,11.6072998-6.1638794l0.151123-0.2389221l41.4460449-61.5821533h-0.0701294
	l25.8077393-38.3480835v-0.0036011C995.7572632,383.6968384,1001.0427246,364.4268799,999.8339844,349.236908"/>
</svg>
